# xmcd
#
# Track frame offsets:
#	150
#	12095
#	26691
#	44874
#	61550
#	78098
#	94503
#	109722
#
# Disc length: 1676 seconds
#
# Revision: 1
# Processed by: cddbd v1.5.2PL0 Copyright (c) Steve Scherf et al.
# Submitted via: audiograbber 1.83.01
#
DISCID=53068a08
DTITLE=Bente´ Boe - Bent´ Boe Studiooptagelser
DYEAR=1999
DGENRE=Country
TTITLE0=Stand By Your Man
TTITLE1=Mitt Barndom Paradis
TTITLE2=Nothing Has Changed
TTITLE3=Smokey Mountain Queen
TTITLE4=Nu Lever Jag På Minnen
TTITLE5=Memories Of You
TTITLE6=A Prison Called Love
TTITLE7=If My Wishes Had Wings
EXTD=
EXTT0=
EXTT1=
EXTT2=
EXTT3=
EXTT4=
EXTT5=
EXTT6=
EXTT7=
PLAYORDER=
